<svg width="200" height="200" viewBox="0 0 200 200" xmlns="http://www.w3.org/2000/svg">
  <!-- Sky background -->
  <rect width="200" height="140" fill="#E0F6FF"/>
  
  <!-- Ground -->
  <rect y="170" width="200" height="30" fill="#90EE90"/>
  
  <!-- Main building base -->
  <rect x="20" y="120" width="160" height="50" fill="#F5DEB3" stroke="#D2B48C" stroke-width="2"/>
  
  <!-- Central dome structure -->
  <rect x="80" y="80" width="40" height="40" fill="#F5DEB3" stroke="#D2B48C" stroke-width="2"/>
  
  <!-- Dome -->
  <ellipse cx="100" cy="80" rx="25" ry="15" fill="#CD853F" stroke="#8B4513" stroke-width="2"/>
  
  <!-- Dome top -->
  <circle cx="100" cy="70" r="8" fill="#FFD700" stroke="#DAA520" stroke-width="1"/>
  
  <!-- Flag on dome -->
  <rect x="99" y="60" width="2" height="12" fill="#8B4513"/>
  <rect x="101" y="60" width="8" height="5" fill="#FF6B35"/>
  
  <!-- Left wing -->
  <rect x="20" y="100" width="60" height="20" fill="#F5DEB3" stroke="#D2B48C" stroke-width="1"/>
  
  <!-- Right wing -->
  <rect x="120" y="100" width="60" height="20" fill="#F5DEB3" stroke="#D2B48C" stroke-width="1"/>
  
  <!-- Columns on main building -->
  <rect x="30" y="120" width="4" height="50" fill="white" stroke="#CCC" stroke-width="1"/>
  <rect x="40" y="120" width="4" height="50" fill="white" stroke="#CCC" stroke-width="1"/>
  <rect x="50" y="120" width="4" height="50" fill="white" stroke="#CCC" stroke-width="1"/>
  <rect x="60" y="120" width="4" height="50" fill="white" stroke="#CCC" stroke-width="1"/>
  
  <rect x="136" y="120" width="4" height="50" fill="white" stroke="#CCC" stroke-width="1"/>
  <rect x="146" y="120" width="4" height="50" fill="white" stroke="#CCC" stroke-width="1"/>
  <rect x="156" y="120" width="4" height="50" fill="white" stroke="#CCC" stroke-width="1"/>
  <rect x="166" y="120" width="4" height="50" fill="white" stroke="#CCC" stroke-width="1"/>
  
  <!-- Central entrance -->
  <rect x="85" y="140" width="30" height="30" fill="#8B4513" stroke="#654321" stroke-width="1"/>
  
  <!-- Main door -->
  <rect x="90" y="145" width="20" height="25" fill="#654321"/>
  <circle cx="105" cy="157" r="1" fill="#FFD700"/>
  
  <!-- Windows -->
  <rect x="35" y="130" width="8" height="12" fill="#87CEEB" stroke="#4682B4" stroke-width="1"/>
  <rect x="50" y="130" width="8" height="12" fill="#87CEEB" stroke="#4682B4" stroke-width="1"/>
  <rect x="142" y="130" width="8" height="12" fill="#87CEEB" stroke="#4682B4" stroke-width="1"/>
  <rect x="157" y="130" width="8" height="12" fill="#87CEEB" stroke="#4682B4" stroke-width="1"/>
  
  <!-- Steps -->
  <rect x="70" y="170" width="60" height="5" fill="#D3D3D3"/>
  <rect x="75" y="165" width="50" height="5" fill="#C0C0C0"/>
  
  <!-- Title -->
  <text x="100" y="20" text-anchor="middle" font-family="Arial, sans-serif" font-size="14" font-weight="bold" fill="#2F4F4F">Parliament House</text>
</svg> 